<svg width="10" height="7" viewBox="0 0 10 7" fill="none" xmlns="http://www.w3.org/2000/svg">
<path d="M7.43089 3.40509C7.35664 3.48251 7.2611 3.53618 7.15635 3.55931C7.05161 3.58244 6.94236 3.57399 6.84242 3.53503C6.74248 3.49606 6.65634 3.42834 6.59489 3.34042C6.53345 3.2525 6.49945 3.14833 6.49721 3.04108C6.49497 2.93384 6.52458 2.82833 6.58229 2.73791C6.64001 2.64749 6.72325 2.57622 6.82147 2.5331C6.91969 2.48998 7.02849 2.47695 7.13411 2.49567C7.23974 2.51439 7.33743 2.564 7.41485 2.63825C7.51867 2.7378 7.57868 2.87453 7.58169 3.01834C7.58469 3.16215 7.53045 3.30127 7.43089 3.40509ZM6.97805 6.23876C6.52909 6.37851 6.05634 6.42521 5.58873 6.37602C5.57817 6.37529 5.56808 6.37454 5.55798 6.37283C5.37615 6.3522 5.1961 6.31816 5.0193 6.27097C4.33533 6.08801 3.64612 5.7009 2.96746 5.11865L1.39019 5.73742C1.31786 5.76603 1.23885 5.77329 1.16252 5.75837C1.08619 5.74344 1.01574 5.70694 0.959527 5.6532L0.93971 5.63419C0.884292 5.57337 0.848625 5.49717 0.837418 5.41565C0.826212 5.33413 0.839992 5.25113 0.87694 5.1776L1.6098 3.71993L0.817356 2.29354C0.777334 2.22155 0.760113 2.1391 0.76797 2.05711C0.775827 1.97511 0.808393 1.89743 0.861358 1.83434C0.914324 1.77126 0.985193 1.72573 1.06459 1.7038C1.14399 1.68187 1.22817 1.68455 1.30601 1.71151L2.90755 2.26481C3.56129 1.65509 4.23371 1.23942 4.9092 1.02818C5.08386 0.97327 5.26231 0.931226 5.44311 0.902387C5.45219 0.900758 5.46175 0.899599 5.47108 0.898205C5.93696 0.828854 6.41211 0.855521 6.8673 0.976565C7.82531 1.22882 8.58056 1.8507 9.04582 2.32881C9.46601 2.76041 9.8447 3.28278 9.89003 3.44461C9.90839 3.51077 9.90985 3.58048 9.89427 3.64735C9.85597 3.8107 9.49946 4.34896 9.09769 4.7978C8.65254 5.29333 7.92513 5.94559 6.97805 6.23876ZM4.6718 5.27925C4.62925 5.1253 4.60596 4.96666 4.60246 4.80697C4.59324 4.39132 4.72123 3.9842 4.96663 3.64857C4.70741 3.32353 4.56252 2.92213 4.55436 2.50645C4.5512 2.34673 4.568 2.18723 4.60437 2.03167C4.16986 2.25623 3.73409 2.58495 3.29706 3.01782C3.24297 3.07147 3.17491 3.10885 3.10062 3.1257C3.02633 3.14256 2.9488 3.13822 2.87686 3.11318L2.04543 2.82639L2.42609 3.51174C2.45835 3.56971 2.47594 3.63469 2.47732 3.70102C2.47871 3.76735 2.46385 3.83301 2.43405 3.89228L2.08187 4.59205L2.90178 4.27038C2.97261 4.24234 3.04989 4.23475 3.12481 4.24848C3.19974 4.26221 3.26931 4.29671 3.32559 4.34804C3.77811 4.76289 4.22684 5.0733 4.6718 5.27925ZM9.0165 3.56363C8.69262 3.10556 7.7155 1.89329 6.34251 1.69961C6.12795 1.66917 5.91042 1.66568 5.69499 1.68922C5.58458 1.79682 5.49837 1.92671 5.44211 2.07025C5.38585 2.21379 5.36083 2.36767 5.36873 2.52163C5.37662 2.6756 5.41724 2.82611 5.48788 2.96313C5.55852 3.10016 5.65756 3.22055 5.7784 3.31628C5.82544 3.35347 5.86368 3.40059 5.89037 3.45429C5.91707 3.50798 5.93156 3.56691 5.93282 3.62687C5.93407 3.68682 5.92205 3.74631 5.89762 3.80107C5.8732 3.85584 5.83696 3.90453 5.79152 3.94365C5.67465 4.04447 5.58064 4.16908 5.51577 4.30913C5.4509 4.44919 5.41667 4.60147 5.41536 4.75581C5.41404 4.91015 5.44569 5.06299 5.50817 5.20412C5.57064 5.34525 5.66252 5.47142 5.77766 5.5742C5.99389 5.58882 6.2111 5.57621 6.42418 5.53666C7.78768 5.28822 8.71374 4.03508 9.0165 3.56363Z" fill="white"/>
</svg>
